<svg width="473" height="504" viewBox="0 0 473 504" fill="none" xmlns="http://www.w3.org/2000/svg">
<rect x="1" y="1" width="471" height="502" rx="9" fill="#224957" stroke="white" stroke-width="2" stroke-dasharray="4 4"/>
<path d="M158.055 263.2H162.045C163.081 263.2 163.996 263.41 164.789 263.83C165.582 264.241 166.198 264.819 166.637 265.566C167.076 266.303 167.295 267.148 167.295 268.1C167.295 269.052 167.076 269.901 166.637 270.648C166.198 271.385 165.582 271.964 164.789 272.384C163.996 272.795 163.081 273 162.045 273H158.055V263.2ZM161.989 272.104C162.848 272.104 163.599 271.936 164.243 271.6C164.887 271.255 165.386 270.783 165.741 270.186C166.096 269.579 166.273 268.884 166.273 268.1C166.273 267.316 166.096 266.625 165.741 266.028C165.386 265.421 164.887 264.95 164.243 264.614C163.599 264.269 162.848 264.096 161.989 264.096H159.091V272.104H161.989ZM170.363 267.078C170.597 266.583 170.942 266.21 171.399 265.958C171.866 265.706 172.44 265.58 173.121 265.58V266.546L172.883 266.532C172.109 266.532 171.502 266.77 171.063 267.246C170.625 267.722 170.405 268.389 170.405 269.248V273H169.411V265.636H170.363V267.078ZM177.863 273.07C177.153 273.07 176.514 272.911 175.945 272.594C175.375 272.267 174.927 271.819 174.601 271.25C174.274 270.681 174.111 270.037 174.111 269.318C174.111 268.599 174.274 267.955 174.601 267.386C174.927 266.817 175.375 266.373 175.945 266.056C176.514 265.739 177.153 265.58 177.863 265.58C178.572 265.58 179.211 265.739 179.781 266.056C180.35 266.373 180.793 266.817 181.111 267.386C181.437 267.955 181.601 268.599 181.601 269.318C181.601 270.037 181.437 270.681 181.111 271.25C180.793 271.819 180.35 272.267 179.781 272.594C179.211 272.911 178.572 273.07 177.863 273.07ZM177.863 272.188C178.385 272.188 178.852 272.071 179.263 271.838C179.683 271.595 180.009 271.255 180.243 270.816C180.476 270.377 180.593 269.878 180.593 269.318C180.593 268.758 180.476 268.259 180.243 267.82C180.009 267.381 179.683 267.045 179.263 266.812C178.852 266.569 178.385 266.448 177.863 266.448C177.34 266.448 176.869 266.569 176.449 266.812C176.038 267.045 175.711 267.381 175.469 267.82C175.235 268.259 175.119 268.758 175.119 269.318C175.119 269.878 175.235 270.377 175.469 270.816C175.711 271.255 176.038 271.595 176.449 271.838C176.869 272.071 177.34 272.188 177.863 272.188ZM187.424 265.58C188.115 265.58 188.74 265.739 189.3 266.056C189.86 266.364 190.299 266.803 190.616 267.372C190.933 267.941 191.092 268.59 191.092 269.318C191.092 270.055 190.933 270.709 190.616 271.278C190.299 271.847 189.86 272.291 189.3 272.608C188.749 272.916 188.124 273.07 187.424 273.07C186.827 273.07 186.285 272.949 185.8 272.706C185.324 272.454 184.932 272.09 184.624 271.614V275.716H183.63V265.636H184.582V267.092C184.881 266.607 185.273 266.233 185.758 265.972C186.253 265.711 186.808 265.58 187.424 265.58ZM187.354 272.188C187.867 272.188 188.334 272.071 188.754 271.838C189.174 271.595 189.501 271.255 189.734 270.816C189.977 270.377 190.098 269.878 190.098 269.318C190.098 268.758 189.977 268.263 189.734 267.834C189.501 267.395 189.174 267.055 188.754 266.812C188.334 266.569 187.867 266.448 187.354 266.448C186.831 266.448 186.36 266.569 185.94 266.812C185.529 267.055 185.203 267.395 184.96 267.834C184.727 268.263 184.61 268.758 184.61 269.318C184.61 269.878 184.727 270.377 184.96 270.816C185.203 271.255 185.529 271.595 185.94 271.838C186.36 272.071 186.831 272.188 187.354 272.188ZM199.792 273.07C199.083 273.07 198.444 272.911 197.874 272.594C197.305 272.267 196.857 271.819 196.53 271.25C196.204 270.681 196.04 270.037 196.04 269.318C196.04 268.599 196.204 267.955 196.53 267.386C196.857 266.817 197.305 266.373 197.874 266.056C198.444 265.739 199.083 265.58 199.792 265.58C200.502 265.58 201.141 265.739 201.71 266.056C202.28 266.373 202.723 266.817 203.04 267.386C203.367 267.955 203.53 268.599 203.53 269.318C203.53 270.037 203.367 270.681 203.04 271.25C202.723 271.819 202.28 272.267 201.71 272.594C201.141 272.911 200.502 273.07 199.792 273.07ZM199.792 272.188C200.315 272.188 200.782 272.071 201.192 271.838C201.612 271.595 201.939 271.255 202.172 270.816C202.406 270.377 202.522 269.878 202.522 269.318C202.522 268.758 202.406 268.259 202.172 267.82C201.939 267.381 201.612 267.045 201.192 266.812C200.782 266.569 200.315 266.448 199.792 266.448C199.27 266.448 198.798 266.569 198.378 266.812C197.968 267.045 197.641 267.381 197.398 267.82C197.165 268.259 197.048 268.758 197.048 269.318C197.048 269.878 197.165 270.377 197.398 270.816C197.641 271.255 197.968 271.595 198.378 271.838C198.798 272.071 199.27 272.188 199.792 272.188ZM209.438 272.552C209.251 272.72 209.018 272.851 208.738 272.944C208.467 273.028 208.182 273.07 207.884 273.07C207.193 273.07 206.661 272.883 206.288 272.51C205.914 272.137 205.728 271.609 205.728 270.928V266.476H204.412V265.636H205.728V264.026H206.722V265.636H208.962V266.476H206.722V270.872C206.722 271.311 206.829 271.647 207.044 271.88C207.268 272.104 207.585 272.216 207.996 272.216C208.201 272.216 208.397 272.183 208.584 272.118C208.78 272.053 208.948 271.959 209.088 271.838L209.438 272.552ZM214.999 265.58C215.923 265.58 216.656 265.851 217.197 266.392C217.748 266.924 218.023 267.703 218.023 268.73V273H217.029V268.828C217.029 268.063 216.838 267.479 216.455 267.078C216.073 266.677 215.527 266.476 214.817 266.476C214.024 266.476 213.394 266.714 212.927 267.19C212.47 267.657 212.241 268.305 212.241 269.136V273H211.247V262.612H212.241V266.924C212.512 266.495 212.885 266.163 213.361 265.93C213.837 265.697 214.383 265.58 214.999 265.58ZM227.161 269.626H221.001C221.057 270.391 221.351 271.012 221.883 271.488C222.415 271.955 223.087 272.188 223.899 272.188C224.357 272.188 224.777 272.109 225.159 271.95C225.542 271.782 225.873 271.539 226.153 271.222L226.713 271.866C226.387 272.258 225.976 272.557 225.481 272.762C224.996 272.967 224.459 273.07 223.871 273.07C223.115 273.07 222.443 272.911 221.855 272.594C221.277 272.267 220.824 271.819 220.497 271.25C220.171 270.681 220.007 270.037 220.007 269.318C220.007 268.599 220.161 267.955 220.469 267.386C220.787 266.817 221.216 266.373 221.757 266.056C222.308 265.739 222.924 265.58 223.605 265.58C224.287 265.58 224.898 265.739 225.439 266.056C225.981 266.373 226.405 266.817 226.713 267.386C227.021 267.946 227.175 268.59 227.175 269.318L227.161 269.626ZM223.605 266.434C222.896 266.434 222.299 266.663 221.813 267.12C221.337 267.568 221.067 268.156 221.001 268.884H226.223C226.158 268.156 225.883 267.568 225.397 267.12C224.921 266.663 224.324 266.434 223.605 266.434ZM230.151 267.078C230.384 266.583 230.729 266.21 231.187 265.958C231.653 265.706 232.227 265.58 232.909 265.58V266.546L232.671 266.532C231.896 266.532 231.289 266.77 230.851 267.246C230.412 267.722 230.193 268.389 230.193 269.248V273H229.199V265.636H230.151V267.078ZM238.482 265.636H239.476V273H238.482V265.636ZM238.986 264.026C238.78 264.026 238.608 263.956 238.468 263.816C238.328 263.676 238.258 263.508 238.258 263.312C238.258 263.125 238.328 262.962 238.468 262.822C238.608 262.682 238.78 262.612 238.986 262.612C239.191 262.612 239.364 262.682 239.504 262.822C239.644 262.953 239.714 263.111 239.714 263.298C239.714 263.503 239.644 263.676 239.504 263.816C239.364 263.956 239.191 264.026 238.986 264.026ZM251.425 265.58C252.349 265.58 253.073 265.846 253.595 266.378C254.127 266.91 254.393 267.694 254.393 268.73V273H253.399V268.828C253.399 268.063 253.213 267.479 252.839 267.078C252.475 266.677 251.957 266.476 251.285 266.476C250.52 266.476 249.918 266.714 249.479 267.19C249.041 267.657 248.821 268.305 248.821 269.136V273H247.827V268.828C247.827 268.063 247.641 267.479 247.267 267.078C246.903 266.677 246.381 266.476 245.699 266.476C244.943 266.476 244.341 266.714 243.893 267.19C243.455 267.657 243.235 268.305 243.235 269.136V273H242.241V265.636H243.193V266.98C243.455 266.532 243.819 266.187 244.285 265.944C244.752 265.701 245.289 265.58 245.895 265.58C246.511 265.58 247.043 265.711 247.491 265.972C247.949 266.233 248.289 266.621 248.513 267.134C248.784 266.649 249.171 266.271 249.675 266C250.189 265.72 250.772 265.58 251.425 265.58ZM259.665 265.58C260.626 265.58 261.364 265.823 261.877 266.308C262.39 266.784 262.647 267.493 262.647 268.436V273H261.695V271.852C261.471 272.235 261.14 272.533 260.701 272.748C260.272 272.963 259.758 273.07 259.161 273.07C258.34 273.07 257.686 272.874 257.201 272.482C256.716 272.09 256.473 271.572 256.473 270.928C256.473 270.303 256.697 269.799 257.145 269.416C257.602 269.033 258.326 268.842 259.315 268.842H261.653V268.394C261.653 267.759 261.476 267.279 261.121 266.952C260.766 266.616 260.248 266.448 259.567 266.448C259.1 266.448 258.652 266.527 258.223 266.686C257.794 266.835 257.425 267.045 257.117 267.316L256.669 266.574C257.042 266.257 257.49 266.014 258.013 265.846C258.536 265.669 259.086 265.58 259.665 265.58ZM259.315 272.286C259.875 272.286 260.356 272.16 260.757 271.908C261.158 271.647 261.457 271.273 261.653 270.788V269.584H259.343C258.083 269.584 257.453 270.023 257.453 270.9C257.453 271.329 257.616 271.67 257.943 271.922C258.27 272.165 258.727 272.286 259.315 272.286ZM272.192 265.636V272.104C272.192 273.355 271.884 274.279 271.268 274.876C270.662 275.483 269.742 275.786 268.51 275.786C267.829 275.786 267.18 275.683 266.564 275.478C265.958 275.282 265.463 275.007 265.08 274.652L265.584 273.896C265.939 274.213 266.368 274.461 266.872 274.638C267.386 274.815 267.922 274.904 268.482 274.904C269.416 274.904 270.102 274.685 270.54 274.246C270.979 273.817 271.198 273.145 271.198 272.23V271.292C270.89 271.759 270.484 272.113 269.98 272.356C269.486 272.599 268.935 272.72 268.328 272.72C267.638 272.72 267.008 272.571 266.438 272.272C265.878 271.964 265.435 271.539 265.108 270.998C264.791 270.447 264.632 269.827 264.632 269.136C264.632 268.445 264.791 267.829 265.108 267.288C265.435 266.747 265.878 266.327 266.438 266.028C266.998 265.729 267.628 265.58 268.328 265.58C268.954 265.58 269.518 265.706 270.022 265.958C270.526 266.21 270.932 266.574 271.24 267.05V265.636H272.192ZM268.426 271.838C268.958 271.838 269.439 271.726 269.868 271.502C270.298 271.269 270.629 270.947 270.862 270.536C271.105 270.125 271.226 269.659 271.226 269.136C271.226 268.613 271.105 268.151 270.862 267.75C270.629 267.339 270.298 267.022 269.868 266.798C269.448 266.565 268.968 266.448 268.426 266.448C267.894 266.448 267.414 266.56 266.984 266.784C266.564 267.008 266.233 267.325 265.99 267.736C265.757 268.147 265.64 268.613 265.64 269.136C265.64 269.659 265.757 270.125 265.99 270.536C266.233 270.947 266.564 271.269 266.984 271.502C267.414 271.726 267.894 271.838 268.426 271.838ZM281.384 269.626H275.224C275.28 270.391 275.574 271.012 276.106 271.488C276.638 271.955 277.31 272.188 278.122 272.188C278.579 272.188 278.999 272.109 279.382 271.95C279.765 271.782 280.096 271.539 280.376 271.222L280.936 271.866C280.609 272.258 280.199 272.557 279.704 272.762C279.219 272.967 278.682 273.07 278.094 273.07C277.338 273.07 276.666 272.911 276.078 272.594C275.499 272.267 275.047 271.819 274.72 271.25C274.393 270.681 274.23 270.037 274.23 269.318C274.23 268.599 274.384 267.955 274.692 267.386C275.009 266.817 275.439 266.373 275.98 266.056C276.531 265.739 277.147 265.58 277.828 265.58C278.509 265.58 279.121 265.739 279.662 266.056C280.203 266.373 280.628 266.817 280.936 267.386C281.244 267.946 281.398 268.59 281.398 269.318L281.384 269.626ZM277.828 266.434C277.119 266.434 276.521 266.663 276.036 267.12C275.56 267.568 275.289 268.156 275.224 268.884H280.446C280.381 268.156 280.105 267.568 279.62 267.12C279.144 266.663 278.547 266.434 277.828 266.434ZM290.837 265.58C291.761 265.58 292.494 265.851 293.035 266.392C293.586 266.924 293.861 267.703 293.861 268.73V273H292.867V268.828C292.867 268.063 292.676 267.479 292.293 267.078C291.911 266.677 291.365 266.476 290.655 266.476C289.862 266.476 289.232 266.714 288.765 267.19C288.308 267.657 288.079 268.305 288.079 269.136V273H287.085V262.612H288.079V266.924C288.35 266.495 288.723 266.163 289.199 265.93C289.675 265.697 290.221 265.58 290.837 265.58ZM302.999 269.626H296.839C296.895 270.391 297.189 271.012 297.721 271.488C298.253 271.955 298.925 272.188 299.737 272.188C300.195 272.188 300.615 272.109 300.997 271.95C301.38 271.782 301.711 271.539 301.991 271.222L302.551 271.866C302.225 272.258 301.814 272.557 301.319 272.762C300.834 272.967 300.297 273.07 299.709 273.07C298.953 273.07 298.281 272.911 297.693 272.594C297.115 272.267 296.662 271.819 296.335 271.25C296.009 270.681 295.845 270.037 295.845 269.318C295.845 268.599 295.999 267.955 296.307 267.386C296.625 266.817 297.054 266.373 297.595 266.056C298.146 265.739 298.762 265.58 299.443 265.58C300.125 265.58 300.736 265.739 301.277 266.056C301.819 266.373 302.243 266.817 302.551 267.386C302.859 267.946 303.013 268.59 303.013 269.318L302.999 269.626ZM299.443 266.434C298.734 266.434 298.137 266.663 297.651 267.12C297.175 267.568 296.905 268.156 296.839 268.884H302.061C301.996 268.156 301.721 267.568 301.235 267.12C300.759 266.663 300.162 266.434 299.443 266.434ZM305.988 267.078C306.222 266.583 306.567 266.21 307.024 265.958C307.491 265.706 308.065 265.58 308.746 265.58V266.546L308.508 266.532C307.734 266.532 307.127 266.77 306.688 267.246C306.25 267.722 306.03 268.389 306.03 269.248V273H305.036V265.636H305.988V267.078ZM316.89 269.626H310.73C310.786 270.391 311.08 271.012 311.612 271.488C312.144 271.955 312.816 272.188 313.628 272.188C314.085 272.188 314.505 272.109 314.888 271.95C315.27 271.782 315.602 271.539 315.882 271.222L316.442 271.866C316.115 272.258 315.704 272.557 315.21 272.762C314.724 272.967 314.188 273.07 313.6 273.07C312.844 273.07 312.172 272.911 311.584 272.594C311.005 272.267 310.552 271.819 310.226 271.25C309.899 270.681 309.736 270.037 309.736 269.318C309.736 268.599 309.89 267.955 310.198 267.386C310.515 266.817 310.944 266.373 311.486 266.056C312.036 265.739 312.652 265.58 313.334 265.58C314.015 265.58 314.626 265.739 315.168 266.056C315.709 266.373 316.134 266.817 316.442 267.386C316.75 267.946 316.904 268.59 316.904 269.318L316.89 269.626ZM313.334 266.434C312.624 266.434 312.027 266.663 311.542 267.12C311.066 267.568 310.795 268.156 310.73 268.884H315.952C315.886 268.156 315.611 267.568 315.126 267.12C314.65 266.663 314.052 266.434 313.334 266.434Z" fill="white"/>
<g clip-path="url(#clip0_3_401)">
<path d="M243 239V242H231V239H229V242C229 243.1 229.9 244 231 244H243C244.1 244 245 243.1 245 242V239H243ZM242 235L240.59 233.59L238 236.17V228H236V236.17L233.41 233.59L232 235L237 240L242 235Z" fill="white"/>
</g>
<defs>
<clipPath id="clip0_3_401">
<rect width="24" height="24" fill="white" transform="translate(225 224)"/>
</clipPath>
</defs>
</svg>
