<svg viewBox="0 0 24 24" xmlns="http://www.w3.org/2000/svg"><path d="M12 4c2.728 0 5.336 1.43 7.766 3.781.83.802 1.58 1.658 2.24 2.515.399.516.682.923.836 1.165l.345.539-.345.539c-.154.242-.437.649-.836 1.165-.66.857-1.41 1.713-2.24 2.515C17.336 18.569 14.728 20 12 20c-2.728 0-5.336-1.43-7.766-3.781a23.305 23.305 0 0 1-2.24-2.515 17.484 17.484 0 0 1-.836-1.165L.813 12l.345-.539c.154-.242.437-.649.836-1.165.66-.857 1.41-1.713 2.24-2.515C6.664 5.431 9.272 4 12 4Zm8.422 7.517a21.328 21.328 0 0 0-2.046-2.298C16.283 7.194 14.106 6 12 6 9.895 6 7.717 7.194 5.624 9.219A21.328 21.328 0 0 0 3.216 12a21.328 21.328 0 0 0 2.408 2.781C7.717 16.806 9.894 18 12 18c2.105 0 4.283-1.194 6.376-3.219A21.328 21.328 0 0 0 20.784 12c-.11-.152-.231-.314-.362-.483ZM12 16a4 4 0 1 1 0-8 4 4 0 0 1 0 8Zm0-2a2 2 0 1 0 0-4 2 2 0 0 0 0 4Z" fill-rule="evenodd" fill="#dbdada" class="fill-000000"></path></svg>